<svg preserveAspectRatio="none" width="100%" height="100%" overflow="visible" style="display: block;" viewBox="0 0 13.3418 13.3333" fill="none" xmlns="http://www.w3.org/2000/svg">
<g id="icon">
<path d="M13.292 6.40467C13.1573 6.07933 12.8687 6.00133 12.6733 5.98267V4C12.6733 3.26467 12.0753 2.66667 11.34 2.66667H7.34V1.74C7.54333 1.55733 7.67333 1.29467 7.67333 1C7.67333 0.734784 7.56798 0.48043 7.38044 0.292893C7.1929 0.105357 6.93855 0 6.67333 0C6.40812 0 6.15376 0.105357 5.96623 0.292893C5.77869 0.48043 5.67333 0.734784 5.67333 1C5.67333 1.29467 5.80333 1.55733 6.00667 1.74V2.66667H2.00667C1.27133 2.66667 0.673333 3.26467 0.673333 4V5.998L0.618667 6.002C0.450649 6.01413 0.293451 6.08941 0.178678 6.21272C0.0639057 6.33603 6.81634e-05 6.49821 0 6.66667V8C0 8.17681 0.0702379 8.34638 0.195262 8.4714C0.320286 8.59643 0.489856 8.66667 0.666667 8.66667H0.673333V12C0.673333 12.7353 1.27133 13.3333 2.00667 13.3333H11.34C12.0753 13.3333 12.6733 12.7353 12.6733 12V8.66667C12.8501 8.66667 13.0197 8.59643 13.1447 8.4714C13.2698 8.34638 13.34 8.17681 13.34 8V6.708C13.3477 6.60454 13.3312 6.5007 13.292 6.40467ZM2.00667 12V4H11.34L11.3407 6.664L11.34 6.66667V8L11.3407 8.00333L11.3413 12H2.00667Z" fill="var(--fill-0, #1858EE)"/>
<path d="M4.34001 8C4.89229 8 5.34001 7.40305 5.34001 6.66667C5.34001 5.93029 4.89229 5.33333 4.34001 5.33333C3.78772 5.33333 3.34001 5.93029 3.34001 6.66667C3.34001 7.40305 3.78772 8 4.34001 8Z" fill="var(--fill-0, #1858EE)"/>
<path d="M9.00667 8C9.55896 8 10.0067 7.40305 10.0067 6.66667C10.0067 5.93029 9.55896 5.33333 9.00667 5.33333C8.45439 5.33333 8.00667 5.93029 8.00667 6.66667C8.00667 7.40305 8.45439 8 9.00667 8Z" fill="var(--fill-0, #1858EE)"/>
<path d="M4.00667 9.33333H9.34001V10.6667H4.00667V9.33333Z" fill="var(--fill-0, #1858EE)"/>
</g>
</svg>
