<svg xmlns="http://www.w3.org/2000/svg" viewBox="51.829 759.682 54.429 52.801"><path d="M 60.701 810.483 C 59.909 810.483 59.13 810.327 58.386 810.019 C 55.299 808.74 53.829 805.189 55.107 802.101 C 56.049 799.828 58.249 798.358 60.709 798.358 C 61.502 798.358 62.28 798.514 63.024 798.822 C 66.111 800.101 67.582 803.653 66.303 806.74 C 65.362 809.014 63.163 810.483 60.701 810.483" fill="currentColor"/><path d="M 75.396 788.494 C 73.776 788.494 72.256 787.864 71.111 786.719 C 69.966 785.575 69.336 784.053 69.336 782.434 C 69.336 780.816 69.966 779.294 71.111 778.15 C 72.256 777.005 73.776 776.375 75.396 776.375 C 77.014 776.375 78.535 777.005 79.679 778.149 C 80.825 779.294 81.454 780.816 81.454 782.434 C 81.454 784.053 80.825 785.575 79.68 786.719 C 78.535 787.864 77.014 788.494 75.396 788.494" fill="currentColor"/><path d="M 97.386 773.807 C 94.924 773.807 92.725 772.337 91.783 770.062 C 90.504 766.976 91.975 763.424 95.062 762.146 C 95.806 761.838 96.585 761.682 97.377 761.682 C 99.838 761.682 102.037 763.151 102.98 765.426 C 104.258 768.512 102.787 772.064 99.7 773.343 C 98.956 773.651 98.178 773.807 97.386 773.807" fill="currentColor"/></svg>