<svg xmlns="http://www.w3.org/2000/svg" viewBox="0 0 400 300" fill="none"><defs><pattern id="grid" width="17" height="17" patternUnits="userSpaceOnUse"><circle cx="0.8" cy="0.8" r="0.7" fill="#D3DAE4" opacity="0.55"/></pattern><radialGradient id="aglow" cx="0.5" cy="0.5" r="0.5"><stop offset="0" stop-color="#1858EE" stop-opacity="0.07"/><stop offset="1" stop-color="#1858EE" stop-opacity="0"/></radialGradient></defs><rect width="400" height="300" fill="#FFFFFF"/><rect width="400" height="300" fill="url(#grid)"/><ellipse cx="224.0" cy="158.0" rx="150" ry="120" fill="url(#aglow)"/><line x1="20.0" y1="20.0" x2="28.0" y2="20.0" stroke="#8A95A4" stroke-width="0.7" stroke-linecap="round" stroke-opacity="0.85" vector-effect="non-scaling-stroke"/><line x1="20.0" y1="20.0" x2="20.0" y2="28.0" stroke="#8A95A4" stroke-width="0.7" stroke-linecap="round" stroke-opacity="0.85" vector-effect="non-scaling-stroke"/><circle cx="20.0" cy="20.0" r="1.1" fill="#8A95A4" opacity="0.85"/><line x1="380.0" y1="20.0" x2="372.0" y2="20.0" stroke="#8A95A4" stroke-width="0.7" stroke-linecap="round" stroke-opacity="0.85" vector-effect="non-scaling-stroke"/><line x1="380.0" y1="20.0" x2="380.0" y2="28.0" stroke="#8A95A4" stroke-width="0.7" stroke-linecap="round" stroke-opacity="0.85" vector-effect="non-scaling-stroke"/><circle cx="380.0" cy="20.0" r="1.1" fill="#8A95A4" opacity="0.85"/><line x1="20.0" y1="280.0" x2="28.0" y2="280.0" stroke="#8A95A4" stroke-width="0.7" stroke-linecap="round" stroke-opacity="0.85" vector-effect="non-scaling-stroke"/><line x1="20.0" y1="280.0" x2="20.0" y2="272.0" stroke="#8A95A4" stroke-width="0.7" stroke-linecap="round" stroke-opacity="0.85" vector-effect="non-scaling-stroke"/><circle cx="20.0" cy="280.0" r="1.1" fill="#8A95A4" opacity="0.85"/><line x1="380.0" y1="280.0" x2="372.0" y2="280.0" stroke="#8A95A4" stroke-width="0.7" stroke-linecap="round" stroke-opacity="0.85" vector-effect="non-scaling-stroke"/><line x1="380.0" y1="280.0" x2="380.0" y2="272.0" stroke="#8A95A4" stroke-width="0.7" stroke-linecap="round" stroke-opacity="0.85" vector-effect="non-scaling-stroke"/><circle cx="380.0" cy="280.0" r="1.1" fill="#8A95A4" opacity="0.85"/><rect x="116.0" y="66.0" width="168.0" height="156.0" rx="3" fill="none" stroke="#333C4B" stroke-width="0.9" vector-effect="non-scaling-stroke"/><line x1="116.0" y1="94.0" x2="284.0" y2="94.0" stroke="#333C4B" stroke-width="0.8" stroke-linecap="round" vector-effect="non-scaling-stroke"/><line x1="130.0" y1="80.0" x2="188.0" y2="80.0" stroke="#333C4B" stroke-width="0.85" stroke-linecap="round" vector-effect="non-scaling-stroke"/><path d="M254.0 76.0 L250.0 80.0 L254.0 84.0" fill="none" stroke="#8A95A4" stroke-width="0.8" stroke-linecap="round" stroke-linejoin="round" vector-effect="non-scaling-stroke"/><path d="M266.0 76.0 L270.0 80.0 L266.0 84.0" fill="none" stroke="#8A95A4" stroke-width="0.8" stroke-linecap="round" stroke-linejoin="round" vector-effect="non-scaling-stroke"/><line x1="140.0" y1="94.0" x2="140.0" y2="222.0" stroke="#D3DAE4" stroke-width="0.5" stroke-linecap="round" vector-effect="non-scaling-stroke"/><line x1="164.0" y1="94.0" x2="164.0" y2="222.0" stroke="#D3DAE4" stroke-width="0.5" stroke-linecap="round" vector-effect="non-scaling-stroke"/><line x1="188.0" y1="94.0" x2="188.0" y2="222.0" stroke="#D3DAE4" stroke-width="0.5" stroke-linecap="round" vector-effect="non-scaling-stroke"/><line x1="212.0" y1="94.0" x2="212.0" y2="222.0" stroke="#D3DAE4" stroke-width="0.5" stroke-linecap="round" vector-effect="non-scaling-stroke"/><line x1="236.0" y1="94.0" x2="236.0" y2="222.0" stroke="#D3DAE4" stroke-width="0.5" stroke-linecap="round" vector-effect="non-scaling-stroke"/><line x1="260.0" y1="94.0" x2="260.0" y2="222.0" stroke="#D3DAE4" stroke-width="0.5" stroke-linecap="round" vector-effect="non-scaling-stroke"/><line x1="116.0" y1="119.6" x2="284.0" y2="119.6" stroke="#D3DAE4" stroke-width="0.5" stroke-linecap="round" vector-effect="non-scaling-stroke"/><line x1="116.0" y1="145.2" x2="284.0" y2="145.2" stroke="#D3DAE4" stroke-width="0.5" stroke-linecap="round" vector-effect="non-scaling-stroke"/><line x1="116.0" y1="170.8" x2="284.0" y2="170.8" stroke="#D3DAE4" stroke-width="0.5" stroke-linecap="round" vector-effect="non-scaling-stroke"/><line x1="116.0" y1="196.4" x2="284.0" y2="196.4" stroke="#D3DAE4" stroke-width="0.5" stroke-linecap="round" vector-effect="non-scaling-stroke"/><line x1="123.0" y1="100.0" x2="133.0" y2="100.0" stroke="#8A95A4" stroke-width="0.55" stroke-linecap="round" stroke-opacity="0.8" vector-effect="non-scaling-stroke"/><line x1="147.0" y1="100.0" x2="157.0" y2="100.0" stroke="#8A95A4" stroke-width="0.55" stroke-linecap="round" stroke-opacity="0.8" vector-effect="non-scaling-stroke"/><line x1="171.0" y1="100.0" x2="181.0" y2="100.0" stroke="#8A95A4" stroke-width="0.55" stroke-linecap="round" stroke-opacity="0.8" vector-effect="non-scaling-stroke"/><line x1="195.0" y1="100.0" x2="205.0" y2="100.0" stroke="#8A95A4" stroke-width="0.55" stroke-linecap="round" stroke-opacity="0.8" vector-effect="non-scaling-stroke"/><line x1="219.0" y1="100.0" x2="229.0" y2="100.0" stroke="#8A95A4" stroke-width="0.55" stroke-linecap="round" stroke-opacity="0.8" vector-effect="non-scaling-stroke"/><line x1="243.0" y1="100.0" x2="253.0" y2="100.0" stroke="#8A95A4" stroke-width="0.55" stroke-linecap="round" stroke-opacity="0.8" vector-effect="non-scaling-stroke"/><line x1="267.0" y1="100.0" x2="277.0" y2="100.0" stroke="#8A95A4" stroke-width="0.55" stroke-linecap="round" stroke-opacity="0.8" vector-effect="non-scaling-stroke"/><circle cx="123.0" cy="103.0" r="1.0" fill="#8A95A4" opacity="0.7"/><circle cx="195.0" cy="103.0" r="1.0" fill="#8A95A4" opacity="0.7"/><circle cx="267.0" cy="103.0" r="1.0" fill="#8A95A4" opacity="0.7"/><circle cx="171.0" cy="128.6" r="1.0" fill="#8A95A4" opacity="0.7"/><circle cx="243.0" cy="128.6" r="1.0" fill="#8A95A4" opacity="0.7"/><circle cx="147.0" cy="154.2" r="1.0" fill="#8A95A4" opacity="0.7"/><circle cx="219.0" cy="154.2" r="1.0" fill="#8A95A4" opacity="0.7"/><circle cx="123.0" cy="179.8" r="1.0" fill="#8A95A4" opacity="0.7"/><circle cx="195.0" cy="179.8" r="1.0" fill="#8A95A4" opacity="0.7"/><circle cx="267.0" cy="179.8" r="1.0" fill="#8A95A4" opacity="0.7"/><circle cx="171.0" cy="205.4" r="1.0" fill="#8A95A4" opacity="0.7"/><circle cx="243.0" cy="205.4" r="1.0" fill="#8A95A4" opacity="0.7"/><rect x="212.0" y="145.2" width="24.0" height="25.6" fill="#1858EE" fill-opacity="0.08"/><g class="gfx-cal-scan"><rect x="116.0" y="145.2" width="168.0" height="25.6" fill="#1858EE" fill-opacity="0.05"/><line x1="116.0" y1="145.2" x2="284.0" y2="145.2" stroke="#1858EE" stroke-width="1.0" stroke-linecap="round" vector-effect="non-scaling-stroke"/><line x1="116.0" y1="170.8" x2="284.0" y2="170.8" stroke="#1858EE" stroke-width="0.7" stroke-linecap="round" stroke-opacity="0.6" vector-effect="non-scaling-stroke"/></g><circle class="gfx-cal-flag" cx="224.0" cy="158.0" r="9.0" fill="none" stroke="#1858EE" stroke-width="1.0" stroke-opacity="0.5" vector-effect="non-scaling-stroke"/><circle cx="224.0" cy="158.0" r="4.5" fill="#1858EE" fill-opacity="0.12" stroke="#1858EE" stroke-width="1.0" vector-effect="non-scaling-stroke"/><circle cx="224.0" cy="158.0" r="1.8" fill="#1858EE"/><line x1="116.0" y1="66.0" x2="122.0" y2="66.0" stroke="#8A95A4" stroke-width="0.6" stroke-linecap="round" stroke-opacity="0.85" vector-effect="non-scaling-stroke"/><line x1="116.0" y1="66.0" x2="116.0" y2="72.0" stroke="#8A95A4" stroke-width="0.6" stroke-linecap="round" stroke-opacity="0.85" vector-effect="non-scaling-stroke"/><circle cx="116.0" cy="66.0" r="1.1" fill="#8A95A4" opacity="0.85"/><line x1="284.0" y1="222.0" x2="278.0" y2="222.0" stroke="#8A95A4" stroke-width="0.6" stroke-linecap="round" stroke-opacity="0.85" vector-effect="non-scaling-stroke"/><line x1="284.0" y1="222.0" x2="284.0" y2="216.0" stroke="#8A95A4" stroke-width="0.6" stroke-linecap="round" stroke-opacity="0.85" vector-effect="non-scaling-stroke"/><circle cx="284.0" cy="222.0" r="1.1" fill="#8A95A4" opacity="0.85"/><line x1="116.0" y1="234.0" x2="284.0" y2="234.0" stroke="#8A95A4" stroke-width="0.55" stroke-linecap="round" vector-effect="non-scaling-stroke"/><line x1="116.0" y1="230.8" x2="116.0" y2="237.2" stroke="#8A95A4" stroke-width="0.55" stroke-linecap="round" vector-effect="non-scaling-stroke"/><line x1="284.0" y1="230.8" x2="284.0" y2="237.2" stroke="#8A95A4" stroke-width="0.55" stroke-linecap="round" vector-effect="non-scaling-stroke"/><circle cx="200.0" cy="234.0" r="1.0" fill="#8A95A4"/></svg>